<?xml version="1.0" encoding="UTF-8" standalone="no"?>
<!-- Generator: Adobe Illustrator 16.0.0, SVG Export Plug-In . SVG Version: 6.00 Build 0)  -->

<svg
   version="1.1"
   id="Layer_1"
   x="0px"
   y="0px"
   width="1000"
   height="608.72803"
   viewBox="0 0 999.99999 608.72802"
   enable-background="new 0 0 1000 608.645"
   xml:space="preserve"
   sodipodi:docname="Fox Entertainment.svg"
   inkscape:version="1.1.2 (b8e25be833, 2022-02-05)"
   xmlns:inkscape="http://www.inkscape.org/namespaces/inkscape"
   xmlns:sodipodi="http://sodipodi.sourceforge.net/DTD/sodipodi-0.dtd"
   xmlns="http://www.w3.org/2000/svg"
   xmlns:svg="http://www.w3.org/2000/svg"><defs
   id="defs19">
	
	
	
	
	
	
</defs><sodipodi:namedview
   id="namedview17"
   pagecolor="#ffffff"
   bordercolor="#666666"
   borderopacity="1.0"
   inkscape:pageshadow="2"
   inkscape:pageopacity="0.0"
   inkscape:pagecheckerboard="0"
   showgrid="false"
   inkscape:zoom="0.5"
   inkscape:cx="483"
   inkscape:cy="284"
   inkscape:window-width="1366"
   inkscape:window-height="705"
   inkscape:window-x="-8"
   inkscape:window-y="-8"
   inkscape:window-maximized="1"
   inkscape:current-layer="Layer_1" />

<g
   id="g20301"
   style="fill:#002e56;fill-opacity:1"><g
     id="g9794"
     style="fill:#002e56;fill-opacity:1"><path
       style="display:inline;fill:#002e56;fill-opacity:1;stroke-width:1.00007"
       d="M 0,0 V 422.39016 H 127.84344 V 286.06547 H 244.07719 V 170.49177 H 127.84344 V 115.2085 H 270.37039 L 262.63124,0 Z"
       id="path8051" /><path
       id="path8458"
       style="display:inline;fill:#002e56;fill-opacity:1;stroke-width:1.00007"
       d="M 475.47971,0 C 358.47737,0 264.28366,94.19368 264.28365,211.19606 c 10e-6,117.00233 94.19371,211.1941 211.19606,211.1941 117.00235,0 211.1941,-94.19177 211.1941,-211.1941 C 686.67381,94.19368 592.48206,0 475.47971,0 Z m 0,86.988239 c 19.75546,0 35.65729,15.901801 35.65729,35.657281 v 177.0991 c 0,19.75548 -15.90184,35.65925 -35.65729,35.65925 -19.75546,0 -35.65924,-15.90377 -35.65924,-35.65925 v -177.0991 c 0,-19.75548 15.90378,-35.657281 35.65924,-35.657281 z" /><path
       id="path8456"
       style="display:inline;fill:#002e56;fill-opacity:1;stroke-width:1.00008"
       d="M 623.31711,0 743.15476,211.19489 623.31711,422.38978 H 760.3266 l 51.33194,-90.46856 51.33387,90.46856 H 1000 L 880.16426,211.19489 1000,0 H 862.99241 L 811.65854,90.466616 760.32856,0 Z" /></g><path
     id="polygon8"
     d="M 11.430169,458.21875 C 5.1426807,458.21875 0,463.36725 0,469.65673 v 127.63525 c 0,6.28649 5.1426807,11.43604 11.430169,11.43604 H 988.57179 c 6.27947,0 11.42817,-5.14855 11.42817,-11.43604 V 469.65673 c 0,-6.28848 -5.1487,-11.43798 -11.42817,-11.43798 z m 93.766851,27.49377 h 17.71686 l 33.28409,63.19325 v -63.19325 h 17.45108 v 95.53736 h -17.71491 l -33.28408,-63.75216 v 63.75216 h -17.45304 z m 82.27415,0 h 52.6249 v 15.70206 h -17.3143 v 79.8353 h -17.99435 v -79.8353 h -17.31625 z m 132.7377,0 h 32.60597 c 13.26436,0 21.24532,4.0494 25.03342,12.1669 1.49783,3.53496 2.30401,7.58845 2.30401,14.49828 0,7.0309 -0.80718,11.21687 -2.30401,14.60575 -2.83157,6.35553 -7.70176,10.42136 -15.1549,11.89918 l 22.87207,42.3692 h -19.48542 v -0.002 L 344.2984,539.70531 h -6.08932 v 41.54452 h -18.00021 z m 70.77558,0 h 52.62685 v 15.70206 h -17.31625 v 79.8353 H 408.3007 v -79.8353 h -17.31625 z m 77.67199,0 h 27.59343 l 24.9103,95.53736 h -18.41255 l -4.7292,-19.07699 H 466.8957 l -4.72919,19.07699 h -18.39888 z m 65.90374,0 h 17.99436 v 95.53736 h -17.99436 z m 37.21596,0 h 17.7149 l 33.28409,63.19325 v -63.19325 h 17.4589 v 95.53736 h -17.72272 l -33.29776,-63.75216 v 63.75216 h -17.43741 z m 87.66973,0 h 22.0591 l 21.10351,63.04473 21.52366,-63.04473 h 21.64676 v 95.53736 h -17.1814 v -64.54947 l -21.51779,64.54947 h -8.93465 l -21.64677,-64.54947 v 64.54947 h -17.05242 z m 171.87072,0 h 17.7149 l 33.28409,63.19325 v -63.19325 h 17.45304 v 95.53736 h -17.71686 l -33.28604,-63.75216 v 63.75216 h -17.44913 z m 82.25852,0 h 52.63857 v 15.70206 h -17.31625 v 79.8353 h -17.9924 v -79.8353 h -17.32992 z m -874.686352,0.002 h 49.523565 v 15.70011 H 56.88116 v 22.86034 h 31.122734 v 15.43044 H 56.88116 v 25.82878 h 31.531163 v 15.71769 H 38.888759 Z m 215.015752,0 h 49.52942 v 15.70011 h -31.53702 v 22.86034 h 31.12468 v 15.43044 h -31.12468 v 25.82878 h 31.53702 v 15.71769 h -49.52942 z m 511.09991,0 h 49.52356 v 15.70011 h -31.52921 v 22.86034 h 31.12273 v 15.43044 h -31.12273 v 25.82878 h 31.52921 v 15.71769 h -49.52356 z m -282.6822,13.66774 -11.90308,48.29241 h 24.08366 l -11.91676,-48.29246 z m -144.12095,0.81295 v 25.83855 h 9.47986 c 6.77476,0 11.096,-1.75932 12.7219,-5.40534 0.80645,-1.76298 1.2077,-3.5228 1.2077,-7.84419 0,-3.93018 -0.26527,-5.69166 -1.07872,-7.31656 -1.89105,-3.91517 -6.35427,-5.27246 -12.85088,-5.27246 z"
     style="fill:#002e56;fill-opacity:1;stroke-width:1.00056" /></g></svg>
