<?xml version="1.0" encoding="UTF-8" standalone="no"?>
<!-- Created with Inkscape (http://www.inkscape.org/) -->

<svg
   xmlns:dc="http://purl.org/dc/elements/1.1/"
   xmlns:cc="http://creativecommons.org/ns#"
   xmlns:rdf="http://www.w3.org/1999/02/22-rdf-syntax-ns#"
   xmlns:svg="http://www.w3.org/2000/svg"
   xmlns="http://www.w3.org/2000/svg"
   xmlns:sodipodi="http://sodipodi.sourceforge.net/DTD/sodipodi-0.dtd"
   xmlns:inkscape="http://www.inkscape.org/namespaces/inkscape"
   width="237.36391mm"
   height="71.966667mm"
   viewBox="0 0 237.36391 71.966667"
   version="1.1"
   id="svg8"
   inkscape:version="0.92.4 (5da689c313, 2019-01-14)"
   sodipodi:docname="Lifetime_2020.svg">
  <defs
     id="defs2" />
  <sodipodi:namedview
     id="base"
     pagecolor="#ffffff"
     bordercolor="#666666"
     borderopacity="1.0"
     inkscape:pageopacity="0.0"
     inkscape:pageshadow="2"
     inkscape:zoom="0.35"
     inkscape:cx="409.39397"
     inkscape:cy="176.84601"
     inkscape:document-units="mm"
     inkscape:current-layer="layer1"
     showgrid="false"
     fit-margin-top="0"
     fit-margin-left="0"
     fit-margin-right="0"
     fit-margin-bottom="0"
     inkscape:window-width="1366"
     inkscape:window-height="705"
     inkscape:window-x="-8"
     inkscape:window-y="-8"
     inkscape:window-maximized="1" />
  <metadata
     id="metadata5">
    <rdf:RDF>
      <cc:Work
         rdf:about="">
        <dc:format>image/svg+xml</dc:format>
        <dc:type
           rdf:resource="http://purl.org/dc/dcmitype/StillImage" />
        <dc:title></dc:title>
      </cc:Work>
    </rdf:RDF>
  </metadata>
  <g
     inkscape:label="Layer 1"
     inkscape:groupmode="layer"
     id="layer1"
     transform="translate(529.22191,-155.35308)">
    <g
       id="g877"
       transform="matrix(0.86536457,0,0,0.85696282,-404.65239,-10.707876)"
       style="fill:#f51a50;fill-opacity:1">
      <path
         style="fill:#f51a50;fill-opacity:1;stroke-width:0.26458332"
         id="path817"
         d="m -124.37117,256.61702 h 2.14312 c 9.78958,0 15.98083,-5.23875 24.817918,-18.04458 h 0.15875 l -6.429378,20.10833 h -40.26958 v -0.15875 c 3.86292,-2.2225 4.81542,-4.28625 6.19125,-9.94833 l 9.94833,-39.87271 c 0.60854,-2.48709 0.9525,-4.28625 0.9525,-5.66209 0,-1.87854 -0.50271,-3.09562 -2.14312,-4.28625 v -0.15875 h 22.75416 v 0.15875 c -3.86291,2.2225 -4.81541,4.28625 -6.19125,9.9748 z"
         inkscape:connector-curvature="0" />
      <path
         style="fill:#f51a50;fill-opacity:1;stroke-width:0.26458332"
         id="path819"
         d="m -82.355341,250.87556 c -0.105833,0.52917 -0.15875,1.08479 -0.15875,1.64042 0,1.45521 0.687917,2.40771 2.06375,2.40771 0.79375,-0.0265 1.561042,-0.26459 2.2225,-0.68792 v 0.15875 c -2.672291,3.70417 -6.006041,5.15937 -9.710208,5.15937 -5.582708,0 -7.990417,-3.3602 -7.990417,-7.91104 -0.02646,-1.24354 0.132292,-2.48708 0.423334,-3.70416 l 5.503333,-22.41021 c 0.687917,-2.75167 1.11125,-4.39209 1.11125,-5.58271 0,-1.53458 -0.502708,-2.56646 -1.799167,-3.59833 v -0.18521 h 17.012708 z m 4.709583,-55.29792 c 4.392084,0 7.46125,3.175 7.46125,7.3025 0.02646,4.52438 -3.624791,8.22855 -8.149166,8.255 -0.02646,0 -0.05292,0 -0.07937,0 -4.392083,0 -7.46125,-3.175 -7.46125,-7.3025 -0.07938,-4.49791 3.518958,-8.20208 8.016875,-8.255 0.05292,-0.0265 0.132291,-0.0265 0.211666,0 z"
         inkscape:connector-curvature="0" />
      <path
         style="fill:#f51a50;fill-opacity:1;stroke-width:0.26458332"
         id="path821"
         d="m -52.483883,216.16223 h 6.455833 l -1.031875,2.14312 h -5.847291 l -9.630833,38.99959 c -3.518959,14.34041 -9.710209,20.26708 -22.410208,20.45229 v -0.15875 c 4.550833,-3.09563 6.535208,-10.55688 10.477499,-27.75479 l 7.3025,-31.51188 h -3.942291 l 0.264583,-0.9525 4.365625,-1.87854 0.767292,-2.40771 c 3.095625,-12.27667 12.356041,-19.31458 22.172083,-19.31458 5.423958,0 9.789583,2.67229 9.789583,7.11729 0,5.08 -3.704167,7.91104 -7.990417,7.91104 -2.831041,0 -4.815416,-1.53458 -5.23875,-3.36021 2.566459,-0.42333 5.423959,-2.67229 5.423959,-7.56708 0,-1.64042 -0.846667,-2.75167 -2.407709,-2.75167 -3.095625,0 -5.662083,4.28625 -7.3025,14.34042 z"
         inkscape:connector-curvature="0" />
      <path
         style="fill:#f51a50;fill-opacity:1;stroke-width:0.26458332"
         id="path823"
         d="m -52.298674,243.81119 c 0,-13.6525 11.244791,-28.60146 25.929166,-28.60146 7.037916,0 10.556875,3.59833 10.556875,8.67833 0,9.63083 -10.398125,13.73188 -22.410208,14.26104 -0.264584,1.61396 -0.396875,3.25438 -0.423334,4.89479 0,6.87917 3.254375,10.21292 7.805209,10.21292 3.862916,0 6.535208,-1.87854 9.789583,-6.19125 h 0.529166 c -3.598333,8.33438 -9.789583,12.46188 -17.250833,12.46188 -8.519583,0 -14.525624,-5.3975 -14.525624,-15.71625 z m 14.340416,-6.93209 c 7.223125,-2.2225 12.620625,-10.55687 12.620625,-17.35666 0,-1.7198 -0.608542,-2.75167 -1.719792,-2.75167 -3.862916,0 -9.101666,10.55687 -10.900833,20.10833 z"
         inkscape:connector-curvature="0" />
      <path
         style="fill:#f51a50;fill-opacity:1;stroke-width:0.26458332"
         id="path825"
         d="m -2.6628418,248.36202 c -0.1852083,0.58208 -0.2645833,1.19062 -0.2645833,1.79917 0,2.48708 1.6404166,3.94229 3.70416661,3.94229 1.37583329,0 3.17499999,-0.76729 4.81541659,-2.32834 l 0.079375,0.15875 c -3.1749999,5.05355 -7.3818749,7.56709 -12.8058332,7.56709 -6.1912499,0 -9.4456249,-3.59834 -9.4456249,-9.18104 0.05292,-1.42875 0.238125,-2.83105 0.608542,-4.20688 l 6.9585413,-27.83417 h -3.0956253 l 0.264584,-1.11125 c 8.9164579,-2.30187 14.6843745,-7.3025 20.1877077,-15.98083 h 0.7672917 l -3.7041666,14.94896 h 8.0697912 l -0.9525,2.14312 H 4.7984081 Z"
         inkscape:connector-curvature="0" />
      <path
         style="fill:#f51a50;fill-opacity:1;stroke-width:0.26458332"
         id="path827"
         d="m 22.763616,250.87556 c -0.105833,0.52917 -0.15875,1.08479 -0.185208,1.64042 0,1.45521 0.687917,2.40771 2.06375,2.40771 0.79375,-0.0265 1.561042,-0.26459 2.2225,-0.68792 v 0.15875 c -2.672292,3.70417 -6.006042,5.15937 -9.710208,5.15937 -5.582709,0 -7.9904169,-3.3602 -7.9904169,-7.91104 -0.026458,-1.24354 0.1322916,-2.48708 0.4233333,-3.70416 L 15.0907,225.52848 c 0.687916,-2.75167 1.11125,-4.39209 1.11125,-5.58271 0,-1.53458 -0.529167,-2.56646 -1.799167,-3.59833 v -0.18521 H 31.415491 Z M 27.4732,195.57764 c 4.392083,0 7.461249,3.175 7.461249,7.3025 0,4.52438 -3.65125,8.20209 -8.175624,8.22855 -0.02646,0 -0.05292,0 -0.05292,0 -4.365625,0 -7.46125,-3.175 -7.46125,-7.3025 -0.07938,-4.49792 3.518958,-8.20209 8.016875,-8.255 0.07937,0 0.132292,0 0.211667,0.0265 z"
         inkscape:connector-curvature="0" />
      <path
         style="fill:#f51a50;fill-opacity:1;stroke-width:0.26458332"
         id="path829"
         d="m 86.66049,250.87556 c -0.15875,0.52917 -0.264583,1.08479 -0.264583,1.64042 0,1.45521 0.687917,2.40771 2.143125,2.40771 0.767292,-0.0265 1.508125,-0.26459 2.143125,-0.68792 v 0.15875 c -2.566458,3.70417 -5.926667,5.15937 -9.604375,5.15937 -5.662083,0 -8.149166,-3.3602 -8.149166,-7.91104 0,-1.21708 0.264583,-2.40771 0.529166,-3.70416 l 4.894792,-19.65855 c 0.3175,-1.03187 0.502708,-2.0902 0.529167,-3.175 0,-1.37583 -0.529167,-2.2225 -1.878542,-2.2225 -2.672292,0 -5.423958,3.51896 -7.3025,10.74209 l -6.19125,25.0825 H 49.671741 l 7.567083,-30.40063 c 0.3175,-0.97896 0.502708,-1.98437 0.529167,-3.01625 0,-1.45521 -0.608542,-2.40771 -2.06375,-2.40771 -2.672292,0 -5.318125,3.51896 -7.223125,10.98021 l -6.164792,24.81792 H 28.399241 l 8.255,-33.15229 c 0.608542,-2.75167 1.031875,-4.39209 1.031875,-5.58271 0,-1.53458 -0.529167,-2.56646 -1.719792,-3.59833 v -0.18521 h 16.933334 l -2.487084,9.86896 c 3.175,-6.77334 7.117292,-10.74209 13.043958,-10.74209 5.662084,0 8.149167,3.86292 8.149167,8.83709 -0.02646,0.60854 -0.07937,1.21708 -0.185208,1.79916 3.254375,-6.77333 7.381875,-10.63625 13.229166,-10.63625 5.767917,0 8.149167,3.70417 8.149167,8.59896 -0.02646,1.61396 -0.238125,3.22792 -0.608542,4.81542 z"
         inkscape:connector-curvature="0" />
      <path
         style="fill:#f51a50;fill-opacity:1;stroke-width:0.26458332"
         id="path831"
         d="m 93.857157,243.81119 c 0,-13.6525 11.244793,-28.60146 25.929163,-28.60146 7.03792,0 10.55688,3.59833 10.55688,8.67833 0,9.63083 -10.39813,13.73188 -22.41021,14.26104 -0.26458,1.61396 -0.39687,3.25438 -0.42333,4.89479 0,6.87917 3.25437,10.21292 7.80521,10.21292 3.86291,0 6.5352,-1.87854 9.78958,-6.19125 h 0.50271 c -3.59834,8.33438 -9.78959,12.46188 -17.25084,12.46188 -8.466663,0 -14.499163,-5.3975 -14.499163,-15.71625 z m 14.340413,-6.93209 c 7.22313,-2.2225 12.62063,-10.55687 12.62063,-17.35666 0,-1.7198 -0.60854,-2.75167 -1.71979,-2.75167 -3.83646,0 -9.07521,10.55687 -10.90084,20.10833 z"
         inkscape:connector-curvature="0" />
    </g>
  </g>
</svg>
